<?xml version="1.0" standalone="no"?>
<!DOCTYPE svg PUBLIC "-//W3C//DTD SVG 20010904//EN"
 "http://www.w3.org/TR/2001/REC-SVG-20010904/DTD/svg10.dtd">
<svg version="1.0" xmlns="http://www.w3.org/2000/svg"
 width="300.000000pt" height="300.000000pt" viewBox="0 0 300.000000 300.000000"
 preserveAspectRatio="xMidYMid meet">
<metadata>
Created by potrace 1.10, written by Peter Selinger 2001-2011
</metadata>
<g transform="translate(0.000000,300.000000) scale(0.100000,-0.100000)"
fill="#000000" stroke="none">
<path d="M1567 2245 l-257 -130 1 -133 1 -134 -93 -44 c-51 -25 -105 -54 -120
-65 -15 -11 -29 -16 -31 -12 -2 5 -2 48 0 96 l3 88 75 37 74 36 0 42 0 42
-110 -57 -111 -58 -2 -166 c-1 -92 1 -167 5 -167 5 0 91 42 193 92 l184 92 3
134 3 133 184 95 c101 52 186 94 190 94 3 0 5 -39 4 -87 l-1 -88 -122 -65
-122 -65 1 -287 c1 -266 -3 -313 -24 -279 -3 6 -30 24 -61 41 l-55 32 3 124
c2 68 -1 124 -5 124 -4 0 -21 -7 -38 -15 l-30 -16 3 -131 3 -131 135 -77 135
-78 3 326 2 327 113 59 c61 32 115 62 120 66 4 3 6 80 5 171 l-3 164 -258
-130z m233 45 c0 -29 -2 -30 -22 -19 -13 6 -24 13 -26 14 -5 4 29 35 39 35 5
0 9 -14 9 -30z m-440 -430 c0 -5 -13 -23 -30 -41 -22 -25 -33 -30 -41 -22 -8
8 -3 15 20 27 19 10 31 24 31 37 0 11 5 17 10 14 6 -3 10 -10 10 -15z m-280
-172 c0 -4 -5 -8 -11 -8 -5 0 -7 6 -3 13 6 10 4 10 -7 0 -7 -7 -19 -13 -26
-13 -12 0 -13 12 -4 59 2 8 51 -42 51 -51z m475 -330 c-2 -27 -30 -36 -39 -12
-4 10 0 22 11 29 22 17 30 12 28 -17z"/>
<path d="M1483 1219 c-36 -10 -63 -43 -63 -75 0 -33 30 -61 85 -81 37 -14 50
-24 50 -38 0 -26 -44 -34 -57 -11 -11 20 -78 22 -78 2 0 -7 11 -25 25 -40 20
-22 33 -26 78 -26 40 0 59 5 75 20 54 51 33 107 -50 138 -38 14 -53 25 -53 38
0 24 43 32 51 10 4 -10 19 -16 41 -16 30 0 34 3 31 21 -6 44 -77 74 -135 58z"/>
<path d="M630 1195 c0 -23 4 -25 41 -25 l40 0 -3 -110 -3 -110 33 0 32 0 0
110 0 110 40 0 c36 0 40 3 40 25 l0 25 -110 0 -110 0 0 -25z"/>
<path d="M899 1113 c16 -60 31 -120 35 -135 6 -25 11 -28 49 -28 l43 0 19 91
c10 49 21 86 25 82 4 -4 13 -39 20 -78 18 -98 17 -96 63 -93 l40 3 33 125 c19
69 34 128 34 133 0 4 -15 7 -34 7 -38 0 -37 3 -64 -155 -10 -58 -14 -51 -38
68 l-17 87 -38 0 -38 0 -23 -100 c-25 -111 -28 -110 -48 18 l-14 82 -37 0 -37
0 27 -107z"/>
<path d="M1305 1085 l0 -135 33 0 32 0 0 135 0 135 -32 0 -33 0 0 -135z"/>
<path d="M1675 1085 l0 -135 33 0 c32 0 32 0 32 50 l0 50 44 0 c62 0 96 29 96
81 0 29 -7 47 -25 64 -21 22 -33 25 -102 25 l-78 0 0 -135z m136 69 c19 -23
-1 -48 -40 -52 -30 -3 -31 -2 -31 32 0 33 2 36 29 36 16 0 34 -7 42 -16z"/>
<path d="M1925 1085 l0 -135 85 0 c84 0 85 0 85 25 0 23 -3 25 -52 25 -52 0
-53 0 -53 30 0 29 2 30 45 30 41 0 45 2 45 25 0 23 -4 25 -45 25 -43 0 -45 1
-45 30 0 30 1 30 53 30 49 0 52 2 52 25 0 25 -1 25 -85 25 l-85 0 0 -135z"/>
<path d="M2145 1085 l0 -135 33 0 c32 0 32 0 32 50 0 28 4 50 9 50 6 0 22 -22
38 -50 26 -46 31 -50 65 -50 l38 0 -31 50 -31 50 31 29 c40 37 41 73 2 112
-28 27 -35 29 -108 29 l-78 0 0 -135z m138 64 c17 -28 1 -49 -38 -49 -33 0
-35 2 -35 36 0 34 1 35 31 32 18 -2 37 -10 42 -19z"/>
<path d="M1166 835 c-9 -24 2 -40 35 -52 17 -7 28 -17 24 -22 -9 -15 -42 -14
-48 2 -2 6 -8 9 -12 5 -13 -12 15 -38 41 -38 25 0 47 29 36 47 -4 7 -20 16
-35 22 -15 6 -27 15 -27 20 0 17 20 23 36 10 16 -13 30 -6 19 10 -10 16 -62
13 -69 -4z"/>
<path d="M1310 790 c0 -33 4 -60 10 -60 6 0 10 11 10 24 0 18 6 26 21 28 55 8
50 68 -6 68 l-35 0 0 -60z m58 27 c2 -12 -3 -17 -17 -17 -15 0 -21 6 -21 21 0
25 33 22 38 -4z"/>
<path d="M1463 790 c-12 -33 -17 -60 -12 -60 5 0 12 7 15 15 8 21 51 19 63 -2
5 -10 12 -15 15 -12 9 8 -36 119 -48 119 -6 0 -21 -27 -33 -60z m47 -7 c0 -7
-7 -13 -15 -13 -16 0 -19 9 -9 35 5 13 8 14 15 3 5 -7 9 -19 9 -25z"/>
<path d="M1610 791 c0 -34 4 -61 10 -61 6 0 10 11 10 25 0 14 4 25 8 25 5 0
14 -11 20 -25 6 -14 16 -25 22 -25 13 0 13 6 -2 30 -11 17 -10 22 0 29 8 5 12
19 10 32 -2 20 -10 25 -40 27 l-38 3 0 -60z m55 24 c0 -11 -8 -21 -17 -23 -14
-3 -18 3 -18 23 0 20 4 26 18 23 9 -2 17 -12 17 -23z"/>
<path d="M1758 790 c2 -33 7 -60 12 -60 4 0 5 12 2 28 l-5 27 30 -27 c39 -38
54 -36 18 2 l-29 30 29 30 c16 17 23 30 16 30 -6 0 -23 -12 -37 -27 l-25 -28
4 28 c2 16 0 27 -7 27 -7 0 -10 -21 -8 -60z"/>
</g>
</svg>
